<svg xmlns="http://www.w3.org/2000/svg" width="36.4" height="51.576" viewBox="0 0 36.4 51.576"><g transform="translate(-671.818 -34.212)"><g transform="translate(672.218 34.712)"><g transform="translate(-108 -323.5)"><line x2="33" transform="translate(108 323.5)" fill="none" stroke="#221f20" stroke-linecap="round" stroke-width="0.8"/><path d="M116.92,335.365s3.316,5.053,1.668,6.706c0,0-.022,3.312,1.3,4.031s.364,5.921.364,5.921-.182,1.925-1.744,1.866c0,0-.92.352-.318.668s-.551.764-.551.764a5.6,5.6,0,0,1-1.431,1.03,17.944,17.944,0,0,0-5.763,1.141c-2.123,1.023-1.93,3.976-1.93,3.976h30.645s-.352-3.244-1.819-3.976-4.038-.115-6.312-1.141l-1.766-1.03-1.906-1.377a10.186,10.186,0,0,1-.787-4.029h.479l-.479-.726c0-1.139,1.6-2.439,1.777-5.088.04.038-.256.019-.508-.922-1.072-4,3.19-7.814,3.19-7.814Z" transform="translate(0.543 12.607)" fill="#ffd400" stroke="#221f20" stroke-linecap="round" stroke-width="1"/><path d="M108.652,323.5s-1.819,13.055,3.587,20.207c1.411,1.988,2.836,4.462,5.993,5.493a53.854,53.854,0,0,0,6.166.648c5.081.512,7.878-1.282,10.7-4.039,6.839-6.606,4.337-22.31,4.337-22.31Z" transform="translate(0.38)" fill="#ffd400" stroke="#221f20" stroke-width="1"/><line x2="30.938" transform="translate(109.031 329.688)" fill="none" stroke="#221f20" stroke-width="0.8"/><line x2="16.5" transform="translate(115.219 368.875)" fill="none" stroke="#221f20" stroke-linecap="round" stroke-width="0.7"/><path d="M112.923,347.712s1.393-4.711,6.223-4.263,4.785,4.263,4.785,4.263Z" transform="translate(5.231 21.163)" fill="none" stroke="#221f20" stroke-width="0.7"/></g><g transform="translate(4.5 11.576)" fill="#9b111e"><path d="M 3.431969881057739 4.75 L 1.568029999732971 4.75 L 0.25 3.431969881057739 L 0.25 1.568029999732971 L 1.568029999732971 0.25 L 3.431969881057739 0.25 L 4.75 1.568029999732971 L 4.75 3.431969881057739 L 3.431969881057739 4.75 Z" stroke="none"/><path d="M 1.671570062637329 0.5 L 0.5 1.671570062637329 L 0.5 3.32843017578125 L 1.671570062637329 4.5 L 3.32843017578125 4.5 L 4.5 3.32843017578125 L 4.5 1.671570062637329 L 3.32843017578125 0.5 L 1.671570062637329 0.5 M 1.464469909667969 0 L 3.535530090332031 0 L 5 1.464469909667969 L 5 3.535530090332031 L 3.535530090332031 5 L 1.464469909667969 5 L 0 3.535530090332031 L 0 1.464469909667969 L 1.464469909667969 0 Z" stroke="none" fill="#272425"/></g><g transform="translate(23.5 11.576)" fill="#9b111e"><path d="M 3.431969881057739 4.75 L 1.568029999732971 4.75 L 0.25 3.431969881057739 L 0.25 1.568029999732971 L 1.568029999732971 0.25 L 3.431969881057739 0.25 L 4.75 1.568029999732971 L 4.75 3.431969881057739 L 3.431969881057739 4.75 Z" stroke="none"/><path d="M 1.671570062637329 0.5 L 0.5 1.671570062637329 L 0.5 3.32843017578125 L 1.671570062637329 4.5 L 3.32843017578125 4.5 L 4.5 3.32843017578125 L 4.5 1.671570062637329 L 3.32843017578125 0.5 L 1.671570062637329 0.5 M 1.464469909667969 0 L 3.535530090332031 0 L 5 1.464469909667969 L 5 3.535530090332031 L 3.535530090332031 5 L 1.464469909667969 5 L 0 3.535530090332031 L 0 1.464469909667969 L 1.464469909667969 0 Z" stroke="none" fill="#272425"/></g><g transform="translate(12.75 10.326)" fill="#9b111e"><path d="M 5.199739933013916 7.25 L 2.300260066986084 7.25 L 0.25 5.199739933013916 L 0.25 2.300260066986084 L 2.300260066986084 0.25 L 5.199739933013916 0.25 L 7.25 2.300260066986084 L 7.25 5.199739933013916 L 5.199739933013916 7.25 Z" stroke="none"/><path d="M 2.403800010681152 0.5 L 0.5 2.403800010681152 L 0.5 5.096199989318848 L 2.403800010681152 7 L 5.096199989318848 7 L 7 5.096199989318848 L 7 2.403800010681152 L 5.096199989318848 0.5 L 2.403800010681152 0.5 M 2.196700096130371 0 L 5.303299903869629 0 L 7.5 2.196700096130371 L 7.5 5.303299903869629 L 5.303299903869629 7.5 L 2.196700096130371 7.5 L 0 5.303299903869629 L 0 2.196700096130371 L 2.196700096130371 0 Z" stroke="none" fill="#272425"/></g></g><g transform="translate(681.875 48.52) rotate(45)"><g fill="#fff"><path d="M 4 6.963752746582031 L 3.188999891281128 5.025599956512451 L 3.12568998336792 4.87431001663208 L 2.974400043487549 4.810999870300293 L 1.036247491836548 4 L 2.974400043487549 3.188999891281128 L 3.12568998336792 3.12568998336792 L 3.188999891281128 2.974400043487549 L 4 1.036247491836548 L 4.810999870300293 2.974400043487549 L 4.87431001663208 3.12568998336792 L 5.025599956512451 3.188999891281128 L 6.963752746582031 4 L 5.025599956512451 4.810999870300293 L 4.87431001663208 4.87431001663208 L 4.810999870300293 5.025599956512451 L 4 6.963752746582031 Z" stroke="none"/><path d="M 4 2.072504997253418 L 3.558000087738037 3.128809928894043 L 3.431389808654785 3.431389808654785 L 3.128809928894043 3.558000087738037 L 2.072504997253418 4 L 3.128809928894043 4.441999912261963 L 3.431389808654785 4.568610191345215 L 3.558000087738037 4.871190071105957 L 4 5.927495002746582 L 4.441999912261963 4.871190071105957 L 4.568610191345215 4.568610191345215 L 4.871190071105957 4.441999912261963 L 5.927495002746582 4 L 4.871190071105957 3.558000087738037 L 4.568610191345215 3.431389808654785 L 4.441999912261963 3.128809928894043 L 4 2.072504997253418 M 4 0 L 5.180000305175781 2.820000171661377 L 8 4 L 5.180000305175781 5.180000305175781 L 4 8 L 2.820000171661377 5.180000305175781 L 0 4 L 2.820000171661377 2.820000171661377 L 4 0 Z" stroke="none" fill="#221f20"/></g></g><g transform="translate(702.561 38.343) rotate(45)"><g fill="#fff"><path d="M 4 6.963752746582031 L 3.188999891281128 5.025599956512451 L 3.12568998336792 4.87431001663208 L 2.974400043487549 4.810999870300293 L 1.036247491836548 4 L 2.974400043487549 3.188999891281128 L 3.12568998336792 3.12568998336792 L 3.188999891281128 2.974400043487549 L 4 1.036247491836548 L 4.810999870300293 2.974400043487549 L 4.87431001663208 3.12568998336792 L 5.025599956512451 3.188999891281128 L 6.963752746582031 4 L 5.025599956512451 4.810999870300293 L 4.87431001663208 4.87431001663208 L 4.810999870300293 5.025599956512451 L 4 6.963752746582031 Z" stroke="none"/><path d="M 4 2.072504997253418 L 3.558000087738037 3.128809928894043 L 3.431389808654785 3.431389808654785 L 3.128809928894043 3.558000087738037 L 2.072504997253418 4 L 3.128809928894043 4.441999912261963 L 3.431389808654785 4.568610191345215 L 3.558000087738037 4.871190071105957 L 4 5.927495002746582 L 4.441999912261963 4.871190071105957 L 4.568610191345215 4.568610191345215 L 4.871190071105957 4.441999912261963 L 5.927495002746582 4 L 4.871190071105957 3.558000087738037 L 4.568610191345215 3.431389808654785 L 4.441999912261963 3.128809928894043 L 4 2.072504997253418 M 4 0 L 5.180000305175781 2.820000171661377 L 8 4 L 5.180000305175781 5.180000305175781 L 4 8 L 2.820000171661377 5.180000305175781 L 0 4 L 2.820000171661377 2.820000171661377 L 4 0 Z" stroke="none" fill="#221f20"/></g></g></g></svg>