<svg xmlns="http://www.w3.org/2000/svg" width="123.452" height="50.5" viewBox="0 0 123.452 50.5"><g transform="translate(-1289.253 -227.79)"><g transform="translate(1289.8 228.29)"><path d="M1628.338,304.213s-9.148,3.132-4.5,7.873" transform="translate(-1515.012 -288.639)" fill="#2b2727" opacity="0.998"/><path d="M.648,0A.648.648,0,1,1,0,.648.648.648,0,0,1,.648,0Z" transform="translate(109.772 15.301)" fill="#2b2727" opacity="0.998"/><path d="M104.91,5.723c.863.891,5.882,3.69,7.874,7.568.11.213.246,1.166.358,1.472.009.108.021-.11.047.416.676,5.28,6.4,5.317,6.894,6.058.156.235,2.1.553,1.583,1.75s.031,2.476-6.7,1.967c-.933-.07-2.5-.949-4.356-1.265a7.914,7.914,0,0,0-3.059,0h-4.081s-2.448,1.524-3.5,2.211a18.941,18.941,0,0,0-2.512,2.473l-.814,1.081-1.92,2.52-.412,1.677,2.4.716.861.257h4.664l1.845,1.057-.808,1.146s.435,1.454,0,1.542a10.327,10.327,0,0,0-2.452.356H96.664l-4.951-.671L87.8,36.828l-2.175-1.146-1.42-1.314-1.485.58-1.014.648-1.78.716h-.96l-.972.174-.909.579.139,1.408,2.81,1.668,1.42,1.1,2.175,1.184-2.893,2.464-2.207-.114a4.321,4.321,0,0,1-1.7.114,5.021,5.021,0,0,1-1.655-.681l-2.684-1.437-.992-1.346-.346-1.508-.689-.577-1.079.4-2.184.579H60.4l-4.142.671H53.011l-3.1-.671H44.727l-1.781.324-.8,1.084.472.992,1.457.455,1.944.536,1.318,1.022h.947L45.051,48.7l-4.956-.382-2.3-.667-3.137-.678L32.75,45.5l-1.719-1.783-.979-.99-1.645-2.4-1.494-2.049V35.6l-.949-1.373-1.4-1.155H20.695l-2.368,1.155-2.3,2.023-3.153,2.03L8.393,39.421H2.829L.888,38.275,0,36.569l.888-2.347,1.941-1.155a4.43,4.43,0,0,0,2.32-.324A4.284,4.284,0,0,1,7.181,32.3l1.861-1.136,1.733-1.523,1.3-.844.791-.951,1.36-1.27L15.7,25.309l1.5-1.48,2.7-3.182.8-2.124,1.2-1.673,1.11-2.088,1.551-2.129,1.4-2.148L28.082,8.9l2.3-1.23,2.043-1.627,1.909-1.3,1.253-.957,1.884-1.136,3.009-1.1L42.622.8l2.1-.648L47.017,0h4.676l2.2.475L56.253.8l1.912.422,2.23.648,2.168.775,1.543.648,1.445.488,1.149.633.492.324,1.609.648,1.871.655,2.613,1.111,2.708.84H82.72l3.563-.516,2.365-.648,2.741-.786,2.594-.979,2.357-.324H101l2.464.329Z" transform="translate(0 0)" fill="#2b2727" stroke="#2b2727" stroke-width="1" opacity="0.998"/><g transform="translate(98.984 33.478)"><g transform="matrix(0.105, 0.995, -0.995, 0.105, 10.119, 0.223)" fill="#504e4e"><path d="M.162,0,.324,1.3H0Z" stroke="none"/><path d="M 0.162048801779747 -4.76837158203125e-06 L 0.3240987956523895 1.296395301818848 L -1.192092895507812e-06 1.296395301818848 L 0.162048801779747 -4.76837158203125e-06 Z" stroke="none" fill="#504e4e"/></g><g transform="translate(9.318 4.144) rotate(115)" fill="#504e4e"><path d="M.162,0,.324,1.3H0Z" stroke="none"/><path d="M 0.162048801779747 -4.76837158203125e-06 L 0.3240987956523895 1.296395301818848 L -1.192092895507812e-06 1.296395301818848 L 0.162048801779747 -4.76837158203125e-06 Z" stroke="none" fill="#504e4e"/></g><g transform="matrix(0.07, 0.998, -0.998, 0.07, 9.803, 1.865)" fill="#504e4e"><path d="M.162,0,.324,1.3H0Z" stroke="none"/><path d="M 0.162048801779747 -4.76837158203125e-06 L 0.3240987956523895 1.296395301818848 L -1.192092895507812e-06 1.296395301818848 L 0.162048801779747 -4.76837158203125e-06 Z" stroke="none" fill="#504e4e"/></g><g transform="matrix(-0.574, 0.819, -0.819, -0.574, 8.022, 5.886)" fill="#504e4e"><path d="M.162,0,.324,1.3H0Z" stroke="none"/><path d="M 0.162048801779747 -4.76837158203125e-06 L 0.3240987956523895 1.296395301818848 L -1.192092895507812e-06 1.296395301818848 L 0.162048801779747 -4.76837158203125e-06 Z" stroke="none" fill="#504e4e"/></g><path d="M1563.237,374.281c.665,0,0,.806,0,.806l-1.4.474,1.4.652-.278.441-1.121.433s.768.447.9.8a.3.3,0,0,1-.2.432l-2.235-.232a6.579,6.579,0,0,1,1.157,1.341c.122.3-.081.435-.437.435-1.1,0-3.98-.435-3.98-.435a10.847,10.847,0,0,1-2.753-1.793C1553.863,377.037,1555.166,373.706,1563.237,374.281Z" transform="translate(-1554.214 -374.214)" fill="#b88c6f"/></g><g transform="translate(78.608 41.636) rotate(-7)"><g transform="matrix(0.105, 0.995, -0.995, 0.105, 10.119, 0.223)" fill="#504e4e"><path d="M.162,0,.324,1.3H0Z" stroke="none"/><path d="M 0.162048801779747 -4.76837158203125e-06 L 0.3240987956523895 1.296395301818848 L -1.192092895507812e-06 1.296395301818848 L 0.162048801779747 -4.76837158203125e-06 Z" stroke="none" fill="#504e4e"/></g><g transform="translate(9.318 4.144) rotate(115)" fill="#504e4e"><path d="M.162,0,.324,1.3H0Z" stroke="none"/><path d="M 0.162048801779747 -4.76837158203125e-06 L 0.3240987956523895 1.296395301818848 L -1.192092895507812e-06 1.296395301818848 L 0.162048801779747 -4.76837158203125e-06 Z" stroke="none" fill="#504e4e"/></g><g transform="matrix(0.07, 0.998, -0.998, 0.07, 9.803, 1.865)" fill="#504e4e"><path d="M.162,0,.324,1.3H0Z" stroke="none"/><path d="M 0.162048801779747 -4.76837158203125e-06 L 0.3240987956523895 1.296395301818848 L -1.192092895507812e-06 1.296395301818848 L 0.162048801779747 -4.76837158203125e-06 Z" stroke="none" fill="#504e4e"/></g><g transform="matrix(-0.574, 0.819, -0.819, -0.574, 8.022, 5.886)" fill="#504e4e"><path d="M.162,0,.324,1.3H0Z" stroke="none"/><path d="M 0.162048801779747 -4.76837158203125e-06 L 0.3240987956523895 1.296395301818848 L -1.192092895507812e-06 1.296395301818848 L 0.162048801779747 -4.76837158203125e-06 Z" stroke="none" fill="#504e4e"/></g><path d="M1563.237,374.281c.665,0,0,.806,0,.806l-1.4.474,1.4.652-.278.441-1.121.433s.768.447.9.8a.3.3,0,0,1-.2.432l-2.235-.232a6.579,6.579,0,0,1,1.157,1.341c.122.3-.081.435-.437.435a31.012,31.012,0,0,1-3.96-.6,9.336,9.336,0,0,1-2.774-1.628C1553.863,377.037,1555.166,373.706,1563.237,374.281Z" transform="translate(-1554.214 -374.214)" fill="#b88c6f"/></g><circle cx="1.296" cy="1.296" r="1.296" transform="translate(109.124 14.652)" fill="#b98d70" opacity="0.998"/><g transform="translate(107.51 15.076)"><path d="M5.488.012c1.189,6.063,7.828,5.3,8.465,6.25.016.024-.4-.3-.285-.23A1.471,1.471,0,0,1,14.5,8.046c-.517,1.63-.714,2.488-7.449,1.97C6.116,9.944,4,8.683,1.683,8.666-3.647,5.581,5.375-.3,5.488.012Z" transform="translate(0.306 0)" fill="#b98d70" opacity="0.998"/><path d="M1628.338,304.213s-9.148,3.132-4.5,7.873" transform="translate(-1622.522 -304.04)" fill="#b98d70" opacity="0.998"/></g><circle cx="0.648" cy="0.648" r="0.648" transform="translate(109.772 15.301)" fill="#2b2727" opacity="0.998"/><path d="M0,.066C1.165-.439,1.849,2.038,2.261,4.9a65.187,65.187,0,0,1,.522,6.568" transform="translate(122.213 22.737) rotate(109)" fill="none" stroke="#694e3a" stroke-linecap="round" stroke-linejoin="round" stroke-width="1"/><g transform="translate(120.629 22.269)" fill="#fff" stroke="#694e3a" stroke-width="1"><circle cx="0.324" cy="0.324" r="0.324" stroke="none"/><circle cx="0.324" cy="0.324" r="0.176" fill="none"/></g></g><g transform="translate(1331.427 272.139)"><g transform="matrix(0.105, 0.995, -0.995, 0.105, 10.356, 0.223)" fill="#504e4e"><path d="M.162,0,.324,1.3H0Z" stroke="none"/><path d="M 0.162048801779747 -4.76837158203125e-06 L 0.3240987956523895 1.296395301818848 L -1.192092895507812e-06 1.296395301818848 L 0.162048801779747 -4.76837158203125e-06 Z" stroke="none" fill="#504e4e"/></g><g transform="translate(9.556 4.144) rotate(115)" fill="#504e4e"><path d="M.162,0,.324,1.3H0Z" stroke="none"/><path d="M 0.162048801779747 -4.76837158203125e-06 L 0.3240987956523895 1.296395301818848 L -1.192092895507812e-06 1.296395301818848 L 0.162048801779747 -4.76837158203125e-06 Z" stroke="none" fill="#504e4e"/></g><g transform="matrix(0.07, 0.998, -0.998, 0.07, 10.04, 1.865)" fill="#504e4e"><path d="M.162,0,.324,1.3H0Z" stroke="none"/><path d="M 0.162048801779747 -4.76837158203125e-06 L 0.3240987956523895 1.296395301818848 L -1.192092895507812e-06 1.296395301818848 L 0.162048801779747 -4.76837158203125e-06 Z" stroke="none" fill="#504e4e"/></g><g transform="matrix(-0.574, 0.819, -0.819, -0.574, 8.202, 5.886)" fill="#504e4e"><path d="M.162,0,.324,1.3H0Z" stroke="none"/><path d="M 0.162048801779747 -4.76837158203125e-06 L 0.3240987956523895 1.296395301818848 L -1.192092895507812e-06 1.296395301818848 L 0.162048801779747 -4.76837158203125e-06 Z" stroke="none" fill="#504e4e"/></g><path d="M1563.466,374.281c.682,0,0,.806,0,.806l-1.434.474,1.434.652-.285.441-1.15.433s.788.447.919.8a.3.3,0,0,1-.207.432l-2.292-.232a6.635,6.635,0,0,1,1.186,1.341c.125.3-.083.435-.448.435-1.132,0-4.082-.435-4.082-.435a11.161,11.161,0,0,1-2.823-1.793C1553.854,377.037,1555.191,373.706,1563.466,374.281Z" transform="translate(-1554.214 -374.214)" fill="#b88c6f"/></g></g></svg>