<svg xmlns="http://www.w3.org/2000/svg" width="119.616" height="50.5" viewBox="0 0 119.616 50.5"><g transform="translate(-1289.253 -227.79)"><g transform="translate(1289.8 228.29)"><g transform="translate(0 0)"><path d="M1628.156,304.213s-8.861,3.034-4.357,7.626" transform="translate(-1518.387 -289.128)" fill="#2b2727" opacity="0.998"/><path d="M.628,0A.628.628,0,1,1,0,.628.628.628,0,0,1,.628,0Z" transform="translate(106.326 14.82)" fill="#2b2727" opacity="0.998"/><path d="M101.616,5.543c.836.863,5.7,3.574,7.626,7.33.106.206.238,1.129.347,1.425.009.1.02-.106.046.4.655,5.114,6.2,5.15,6.678,5.868.151.228,2.035.536,1.533,1.695s.029,2.4-6.494,1.906c-.9-.068-2.424-.919-4.219-1.225a7.666,7.666,0,0,0-2.963,0h-3.953s-2.371,1.476-3.391,2.142a18.345,18.345,0,0,0-2.433,2.4l-.788,1.047-1.86,2.441-.713,1.058v3.078l2.326.693.834.249h2.634l1.787,1.024-.783,1.11s.421,1.095,0,1.179a10,10,0,0,0-2.376.345h-2.14l-4.8-.65-3.79-.875-2.106-1.11L81.248,35.8l-1.125-.693H78.2l-.783.693v1.273l.628,1.11,1,.875,1.076,1.364,1.125.961,1.376,1.068L84.73,43.6l-2.106,2.464-3.577-.737-1.631-.737-2.531-.99-1.277-1.147-.77-1.068-1.208-.961-1.516-1.364L68.454,38.5l-3.371.561H58.5l-4.012.65h-3.14l-3-.65H43.323l-1.725.314-.771,1.05.457.961,2.039,1.068.942,1.147,1.277.99h.917l-3.136,3.838-4.8-.37L36.3,47.409l-3.038-.657-1.849-1.428L29.743,43.6l-.635-2.215-1.594-2.324-1.447-1.985v-2.6l-.919-1.33-1.36-1.119H20.045l-2.294,1.119-2.232,1.959-3.054,1.966L8.13,38.183H2.74L.86,37.073,0,35.421l.86-2.273,1.88-1.119a4.291,4.291,0,0,0,2.247-.314,4.15,4.15,0,0,1,1.969-.43l1.8-1.1,1.679-1.476,1.263-.817.766-.922,1.317-1.231,1.423-1.225,1.449-1.433L19.27,20l.775-2.058,1.166-1.621L22.286,14.3l1.5-2.062,1.36-2.08L27.2,8.618l2.228-1.192,1.979-1.576,1.849-1.262,1.214-.927,1.825-1.1L39.21,1.5,41.284.774,43.323.146,45.541,0h4.529l2.135.46,2.282.314,1.852.408,2.16.628,2.1.751,1.494.628,1.4.473,1.113.613.477.314,1.558.628,1.813.634,2.531,1.076,2.623.814h6.515l3.452-.5,2.291-.628,2.655-.762L91.033,4.9l2.283-.314h4.516l2.386.318Z" transform="translate(0 0)" fill="#2b2727" stroke="#2b2727" stroke-width="1" opacity="0.998"/><g transform="translate(93.679 35.252)"><g transform="matrix(0.105, 0.995, -0.995, 0.105, 9.802, 0.216)" fill="#504e4e"><path d="M.157,0,.314,1.256H0Z" stroke="none"/><path d="M 0.1569617092609406 -3.099441528320312e-06 L 0.313921719789505 1.255696892738342 L 1.698732376098633e-06 1.255696892738342 L 0.1569617092609406 -3.099441528320312e-06 Z" stroke="none" fill="#504e4e"/></g><g transform="translate(9.026 4.014) rotate(115)" fill="#504e4e"><path d="M.157,0,.314,1.256H0Z" stroke="none"/><path d="M 0.1569617092609406 -3.099441528320312e-06 L 0.313921719789505 1.255696892738342 L 1.698732376098633e-06 1.255696892738342 L 0.1569617092609406 -3.099441528320312e-06 Z" stroke="none" fill="#504e4e"/></g><g transform="matrix(0.07, 0.998, -0.998, 0.07, 9.495, 1.807)" fill="#504e4e"><path d="M.157,0,.314,1.256H0Z" stroke="none"/><path d="M 0.1569617092609406 -3.099441528320312e-06 L 0.313921719789505 1.255696892738342 L 1.698732376098633e-06 1.255696892738342 L 0.1569617092609406 -3.099441528320312e-06 Z" stroke="none" fill="#504e4e"/></g><g transform="matrix(-0.574, 0.819, -0.819, -0.574, 7.77, 5.701)" fill="#504e4e"><path d="M.157,0,.314,1.256H0Z" stroke="none"/><path d="M 0.1569617092609406 -3.099441528320312e-06 L 0.313921719789505 1.255696892738342 L 1.698732376098633e-06 1.255696892738342 L 0.1569617092609406 -3.099441528320312e-06 Z" stroke="none" fill="#504e4e"/></g><path d="M1562.953,374.279c.644,0,0,.781,0,.781l-1.355.459,1.355.632-.269.427L1561.6,377s.744.433.868.772a.294.294,0,0,1-.2.418l-2.165-.224a6.374,6.374,0,0,1,1.12,1.3c.118.292-.079.421-.423.421-1.07,0-3.855-.421-3.855-.421a10.505,10.505,0,0,1-2.667-1.737C1553.874,376.948,1555.136,373.722,1562.953,374.279Z" transform="translate(-1554.214 -374.214)" fill="#b88c6f"/></g><g transform="translate(82.064 42.479)"><g transform="matrix(0.105, 0.995, -0.995, 0.105, 9.802, 0.216)" fill="#504e4e"><path d="M.157,0,.314,1.256H0Z" stroke="none"/><path d="M 0.1569617092609406 -3.099441528320312e-06 L 0.313921719789505 1.255696892738342 L 1.698732376098633e-06 1.255696892738342 L 0.1569617092609406 -3.099441528320312e-06 Z" stroke="none" fill="#504e4e"/></g><g transform="translate(9.026 4.014) rotate(115)" fill="#504e4e"><path d="M.157,0,.314,1.256H0Z" stroke="none"/><path d="M 0.1569617092609406 -3.099441528320312e-06 L 0.313921719789505 1.255696892738342 L 1.698732376098633e-06 1.255696892738342 L 0.1569617092609406 -3.099441528320312e-06 Z" stroke="none" fill="#504e4e"/></g><g transform="matrix(0.07, 0.998, -0.998, 0.07, 9.495, 1.807)" fill="#504e4e"><path d="M.157,0,.314,1.256H0Z" stroke="none"/><path d="M 0.1569617092609406 -3.099441528320312e-06 L 0.313921719789505 1.255696892738342 L 1.698732376098633e-06 1.255696892738342 L 0.1569617092609406 -3.099441528320312e-06 Z" stroke="none" fill="#504e4e"/></g><g transform="matrix(-0.574, 0.819, -0.819, -0.574, 7.77, 5.701)" fill="#504e4e"><path d="M.157,0,.314,1.256H0Z" stroke="none"/><path d="M 0.1569617092609406 -3.099441528320312e-06 L 0.313921719789505 1.255696892738342 L 1.698732376098633e-06 1.255696892738342 L 0.1569617092609406 -3.099441528320312e-06 Z" stroke="none" fill="#504e4e"/></g><path d="M1562.953,374.279c.644,0,0,.781,0,.781l-1.355.459,1.355.632-.269.427L1561.6,377s.744.433.868.772a.294.294,0,0,1-.2.418l-2.165-.224a6.374,6.374,0,0,1,1.12,1.3c.118.292-.079.421-.423.421a30.037,30.037,0,0,1-3.835-.581,9.042,9.042,0,0,1-2.687-1.577C1553.874,376.948,1555.136,373.722,1562.953,374.279Z" transform="translate(-1554.214 -374.214)" fill="#b88c6f"/></g><circle cx="1.256" cy="1.256" r="1.256" transform="translate(105.698 14.192)" fill="#b98d70" opacity="0.998"/><g transform="translate(104.135 14.603)"><path d="M5.315.012c1.152,5.872,7.582,5.135,8.2,6.054.015.023-.389-.291-.276-.223a1.425,1.425,0,0,1,.8,1.951c-.5,1.579-.692,2.41-7.215,1.908-.9-.07-2.956-1.291-5.2-1.308C-3.533,5.405,5.206-.291,5.315.012Z" transform="translate(0.296 0)" fill="#b98d70" opacity="0.998"/><path d="M1628.156,304.213s-8.861,3.034-4.357,7.626" transform="translate(-1622.522 -304.045)" fill="#b98d70" opacity="0.998"/></g><circle cx="0.628" cy="0.628" r="0.628" transform="translate(106.326 14.82)" fill="#2b2727" opacity="0.998"/><path d="M0,.064C1.129-.425,1.791,1.974,2.19,4.75A63.145,63.145,0,0,1,2.7,11.112" transform="translate(118.376 22.024) rotate(109)" fill="none" stroke="#694e3a" stroke-linecap="round" stroke-linejoin="round" stroke-width="1"/><g transform="translate(116.842 21.57)" fill="#fff" stroke="#694e3a" stroke-width="1"><circle cx="0.314" cy="0.314" r="0.314" stroke="none"/><circle cx="0.314" cy="0.314" r="0.186" fill="none"/></g></g><g transform="translate(40.32 44.042)"><g transform="matrix(0.105, 0.995, -0.995, 0.105, 10.031, 0.216)" fill="#504e4e"><path d="M.157,0,.314,1.256H0Z" stroke="none"/><path d="M 0.1569617092609406 -3.099441528320312e-06 L 0.313921719789505 1.255696892738342 L 1.698732376098633e-06 1.255696892738342 L 0.1569617092609406 -3.099441528320312e-06 Z" stroke="none" fill="#504e4e"/></g><g transform="translate(9.256 4.014) rotate(115)" fill="#504e4e"><path d="M.157,0,.314,1.256H0Z" stroke="none"/><path d="M 0.1569617092609406 -3.099441528320312e-06 L 0.313921719789505 1.255696892738342 L 1.698732376098633e-06 1.255696892738342 L 0.1569617092609406 -3.099441528320312e-06 Z" stroke="none" fill="#504e4e"/></g><g transform="matrix(0.07, 0.998, -0.998, 0.07, 9.725, 1.807)" fill="#504e4e"><path d="M.157,0,.314,1.256H0Z" stroke="none"/><path d="M 0.1569617092609406 -3.099441528320312e-06 L 0.313921719789505 1.255696892738342 L 1.698732376098633e-06 1.255696892738342 L 0.1569617092609406 -3.099441528320312e-06 Z" stroke="none" fill="#504e4e"/></g><g transform="matrix(-0.574, 0.819, -0.819, -0.574, 7.945, 5.701)" fill="#504e4e"><path d="M.157,0,.314,1.256H0Z" stroke="none"/><path d="M 0.1569617092609406 -3.099441528320312e-06 L 0.313921719789505 1.255696892738342 L 1.698732376098633e-06 1.255696892738342 L 0.1569617092609406 -3.099441528320312e-06 Z" stroke="none" fill="#504e4e"/></g><path d="M1563.176,374.279c.661,0,0,.781,0,.781l-1.389.459,1.389.632-.276.427-1.114.419s.763.433.891.772a.294.294,0,0,1-.2.418l-2.22-.224a6.425,6.425,0,0,1,1.149,1.3c.121.292-.081.421-.434.421-1.1,0-3.954-.421-3.954-.421a10.812,10.812,0,0,1-2.734-1.737C1553.865,376.948,1555.16,373.722,1563.176,374.279Z" transform="translate(-1554.214 -374.214)" fill="#b88c6f"/></g></g></g></svg>