<svg xmlns="http://www.w3.org/2000/svg" width="11.314" height="11.314" viewBox="0 0 11.314 11.314"><g transform="translate(5.657) rotate(45)"><g fill="#fff"><path d="M 4 6.963752746582031 L 3.188999891281128 5.025599956512451 L 3.12568998336792 4.87431001663208 L 2.974400043487549 4.810999870300293 L 1.036247491836548 4 L 2.974400043487549 3.188999891281128 L 3.12568998336792 3.12568998336792 L 3.188999891281128 2.974400043487549 L 4 1.036247491836548 L 4.810999870300293 2.974400043487549 L 4.87431001663208 3.12568998336792 L 5.025599956512451 3.188999891281128 L 6.963752746582031 4 L 5.025599956512451 4.810999870300293 L 4.87431001663208 4.87431001663208 L 4.810999870300293 5.025599956512451 L 4 6.963752746582031 Z" stroke="none"/><path d="M 4 2.072504997253418 L 3.558000087738037 3.128809928894043 L 3.431389808654785 3.431389808654785 L 3.128809928894043 3.558000087738037 L 2.072504997253418 4 L 3.128809928894043 4.441999912261963 L 3.431389808654785 4.568610191345215 L 3.558000087738037 4.871190071105957 L 4 5.927495002746582 L 4.441999912261963 4.871190071105957 L 4.568610191345215 4.568610191345215 L 4.871190071105957 4.441999912261963 L 5.927495002746582 4 L 4.871190071105957 3.558000087738037 L 4.568610191345215 3.431389808654785 L 4.441999912261963 3.128809928894043 L 4 2.072504997253418 M 4 0 L 5.180000305175781 2.820000171661377 L 8 4 L 5.180000305175781 5.180000305175781 L 4 8 L 2.820000171661377 5.180000305175781 L 0 4 L 2.820000171661377 2.820000171661377 L 4 0 Z" stroke="none" fill="#221f20"/></g></g></svg>